<svg width="61" height="62" fill="none" xmlns="http://www.w3.org/2000/svg"><path d="M27.47 45.142c-5.335 4.574-10.034 1.525-11.558 0-3.175-3.174-3.175-8.383 0-11.558l15.88-15.88a1.23 1.23 0 000-1.779l-7.749-7.748a1.23 1.23 0 00-1.78 0L6.385 23.93a21.693 21.693 0 000 30.74c8.51 8.51 22.23 8.51 30.742 0l15.88-15.88a1.23 1.23 0 000-1.779l-7.88-7.746a1.23 1.23 0 00-1.778 0L27.47 45.142zm-4.318-34.297l5.971 5.97-3.43 3.43-5.97-5.97 3.43-3.43zm12.066 42.048a19.09 19.09 0 01-27.057 0 19.09 19.09 0 010-27.057l9.782-9.782 5.971 5.97-9.782 9.78a10.658 10.658 0 000 15.118 10.658 10.658 0 0015.118 0l9.782-9.782 5.971 5.97-9.785 9.783zM46.78 41.332l-5.971-5.971 3.43-3.43 5.97 5.97-3.43 3.43zM48.557 30.154c.255.126 1.017.507 1.78-.507l3.555-6.479c.381-.636.126-1.398-.507-1.78-.636-.38-1.398-.125-1.78.508l-3.555 6.479c-.382.636-.127 1.398.507 1.779zM60.879 28.756c-.381-.636-1.143-.889-1.78-.508l-6.478 3.556c-.636.382-.888 1.144-.507 1.78.255.38.888.888 1.78.507l6.478-3.556c.633-.381.76-1.143.507-1.78zM27.47 8.94a1.404 1.404 0 001.78-.508l3.556-6.479c.255-.636 0-1.398-.507-1.779-.636-.252-1.398-.126-1.78.51l-3.555 6.478c-.381.763-.129 1.525.507 1.777zM31.026 12.497c.254.382.888.889 1.779.508l6.478-3.556c.636-.381.889-1.144.508-1.78-.381-.635-1.144-.888-1.78-.507l-6.478 3.556c-.634.381-.889 1.143-.507 1.78z" fill="#6abf4b"/></svg>