<svg width="49" height="61" fill="#6abf4b" xmlns="http://www.w3.org/2000/svg"><path d="M14.996.001c-.894.075-1.716.445-2.313 1.185-.966 1.182-.966 3.032.152 4.217l-.821.815c-.297-.148-.597-.295-.97-.295-.521 0-.97.222-1.342.592l-2.61 2.59a1.243 1.243 0 00-1.49.075l-2.534 2.514c-.448.445-.448 1.035-.076 1.48l-.894.887-.072 2.511C-.062 20.566-.584 25.08.683 29.444c.076.517.449.887.97 1.185.448.294.97.294 1.567.147l1.194-.37c.297-.075.597-.295.82-.445.298-.295.598-.815.598-1.332v-1.702c0-2.442 0-3.477 2.012-5.474l1.415-1.404 9.615 9.542c-1.118 1.702-1.715 3.624-1.715 5.771 0 2.812 1.194 5.549 3.13 7.546a.712.712 0 010 1.034l-7.306 7.251c-.448.445-.448 1.185 0 1.555.449.445 1.194.445 1.567 0l7.306-7.25c1.194-1.186 1.194-3.035 0-4.217-1.64-1.627-2.46-3.7-2.46-5.994 0-2.295.82-4.364 2.46-5.994l4.548-4.514c.746-.74 2.013-.74 2.758 0 .746.74.746 1.997 0 2.737l-2.982 2.959-2.612 2.595a3.84 3.84 0 000 5.474c.597.592 1.343.962 2.088 1.034a3.898 3.898 0 001.043 3.624 3.955 3.955 0 003.651 1.035c.149.815.449 1.555 1.043 2.072a3.645 3.645 0 001.715.962c1.415 1.405 2.758 2.59 3.876 3.624-1.788 1.333-4.325 1.257-5.964-.37l-.821-.815-9.24 9.401c-.449.445-.449 1.185 0 1.555.448.445 1.194.445 1.566 0l7.828-7.768a6.775 6.775 0 008.348-.445c.746.592 1.343 1.11 1.567 1.332l2.088 1.775 5.442-5.402c.822-.815 1.267-1.997 1.194-3.106-.075-1.11-.597-2.072-1.566-2.737-.076-.075-.297-.148-.373-.295 2.236-3.107 2.012-7.398-.821-10.21l-6.113-5.919c-2.236-2.22-5.515-2.812-8.2-1.85-.075-.962-.448-1.924-1.194-2.664a4.162 4.162 0 00-5.888 0l-.97.962-9.466-9.47 1.864-1.85c.372-.37.52-.815.52-1.332 0-.295-.075-.592-.296-.887l.821-.815c1.194 1.11 3.058 1.185 4.249.147.67-.592 1.118-1.404 1.194-2.294.075-.888-.297-1.775-.97-2.443l-4.397-4.363C16.786.295 15.892 0 14.996 0v.001zm31.833 47.274c.076.445-.148.962-.52 1.332l-4.028 3.994-.448-.37c-.822-.665-2.982-2.514-5.667-5.104.297-.222.597-.445.894-.664l.224-.223c.224.518.448.963.97 1.48a3.91 3.91 0 005.515 0l2.012-1.997c.149.147.449.295.597.445.151.295.451.665.451 1.107zm-8.276-17.903l6.113 6.066c2.236 2.22 2.236 5.771 0 8.062l-2.685 2.665c-.597.592-1.716.592-2.313 0-.596-.593-.596-1.702 0-2.295l2.685-2.664c.449-.445.449-1.185 0-1.555-.448-.445-1.194-.445-1.566 0l-5.291 5.257c-.597.592-1.716.592-2.313 0-.597-.593-.597-1.702 0-2.295l5.367-5.326c.449-.445.449-1.185 0-1.555-.448-.445-1.194-.445-1.566 0l-6.189 6.141c-.596.593-1.715.593-2.384-.075-.597-.592-.597-1.702 0-2.294l6.188-6.142c.448-.445.448-1.185 0-1.555-.449-.444-1.194-.444-1.567 0l-5.367 5.327c-.597.592-1.715.592-2.312 0-.597-.593-.597-1.703 0-2.295l5.367-5.326c2.018-2.361 5.597-2.361 7.833-.142zm-16.252-3.624l-2.088 2.072-9.391-9.398 2.088-2.072 9.391 9.398zM20.29 6.955c.224.222.297.445.297.74 0 .294-.148.592-.373.664-.448.295-.97.295-1.342-.075l-.148-.147c-.67-.665-1.864-.665-2.534 0l-1.342 1.26c-.373.37-.522.815-.597 1.332 0 .295.075.592.297.962l-8.349 8.286C3.59 22.567 3.59 24.34 3.513 26.93v1.332l-.745.223c-.97-3.775-.449-7.693 1.342-11.098l.076-.222.076-2.22 6.785-6.733c.297.147.597.294.894.294.52 0 .97-.147 1.342-.517l1.343-1.332c.67-.665.67-1.85 0-2.514l-.149-.148c-.373-.37-.449-.962-.076-1.332.225-.223.449-.37.67-.37.297 0 .521.075.745.295l4.473 4.367z"/></svg>