<svg viewBox="0 0 52 51" fill="none" xmlns="http://www.w3.org/2000/svg"><path d="M3.306 18.343a18.944 18.944 0 01-.308-.274v0l-.048-.045c-1.797-1.674-2.8-3.586-2.8-5.66 0-3.498 2.861-6.55 7.562-8.737C12.404 1.444 18.882.15 26 .15c7.119 0 13.596 1.294 18.288 3.477 4.7 2.186 7.562 5.24 7.562 8.737 0 2.074-1.003 3.987-2.8 5.66l-.048.045v0l-.016.016c-.096.086-.192.171-.292.258l-.001.001c-6.676 5.96-11.204 10.683-13.544 14.118-2.38 3.49-5.008 9.325-7.849 17.457h0c-.432 1.241-2.168 1.241-2.6 0h0c-2.841-8.133-5.469-13.967-7.85-17.457-2.306-3.385-6.735-8.02-13.25-13.856h.009l-.303-.263zm.142-4.03l.104.188.14-.163c1.887-2.187 4.995-3.997 8.874-5.26 3.877-1.26 8.51-1.972 13.434-1.972 4.923 0 9.557.711 13.434 1.973 3.879 1.262 6.987 3.072 8.873 5.26l.14.162.105-.188c.352-.633.539-1.285.539-1.949 0-1.249-.666-2.462-1.837-3.57-1.172-1.11-2.86-2.13-4.941-2.994C38.151 4.069 32.396 2.94 26 2.94c-6.396 0-12.152 1.128-16.313 2.859-2.08.865-3.77 1.884-4.941 2.993-1.17 1.11-1.837 2.322-1.837 3.571 0 .664.187 1.316.539 1.95zm35.743 5.713l.352-.104-.325-.172c-3.432-1.818-8.147-2.9-13.218-2.9-5.07 0-9.786 1.082-13.219 2.9l-.325.172.353.104c3.835 1.134 8.397 1.762 13.19 1.762 4.795 0 9.357-.628 13.192-1.762zM9.202 18.58l.063.087C13.234 15.776 19.361 14.06 26 14.06c6.639 0 12.766 1.717 16.735 4.606l.07.05.08-.035c1.364-.613 2.553-1.302 3.523-2.052l.12-.092-.093-.119c-1.47-1.884-4.246-3.512-7.808-4.67C35.06 10.59 30.687 9.898 26 9.898c-4.686 0-9.06.693-12.627 1.852-3.562 1.157-6.338 2.785-7.807 4.669l-.093.119.12.092c.913.706 2.021 1.359 3.288 1.945l-.165.12h.462l.024-.115zm16.954 5.998v0h-.004c-.038 0-.056.001-.075.002h-.152l-.078-.002v0h-.004c-4.804-.012-9.368-.627-13.28-1.72l-.548-.154.4.403c3 3.02 5.233 5.607 6.707 7.77h0c2.119 3.108 4.358 7.81 6.737 14.136l.14.373.141-.373c2.38-6.327 4.619-11.029 6.737-14.136h0c1.474-2.162 3.707-4.75 6.706-7.77l.4-.403-.546.153c-3.912 1.094-8.475 1.708-13.281 1.72zm0 .15a4.133 4.133 0 01-.077.002H26l-.156-.002h.313z" fill="#6abf4b" stroke="#F9DA73" stroke-width=".3"/></svg>